<mxfile host="Electron" modified="2023-05-19T17:46:16.996Z" agent="Mozilla/5.0 (Windows NT 10.0; Win64; x64) AppleWebKit/537.36 (KHTML, like Gecko) draw.io/21.2.8 Chrome/112.0.5615.165 Electron/24.2.0 Safari/537.36" etag="zVyfiKNFiAJTm5902Gj-" version="21.2.8" type="device">
  <diagram name="Pagina-1" id="iVb3hsS4CO4keV3UGfEp">
    <mxGraphModel dx="1869" dy="1226" grid="1" gridSize="10" guides="1" tooltips="1" connect="1" arrows="1" fold="1" page="1" pageScale="1" pageWidth="827" pageHeight="1169" math="0" shadow="0">
      <root>
        <mxCell id="0" />
        <mxCell id="1" parent="0" />
        <mxCell id="hn4v2kwjK6PcISgxzkxJ-1" value="&lt;p style=&quot;text-indent: -18pt;&quot; class=&quot;MsoListParagraph&quot;&gt;&lt;b&gt;&lt;span style=&quot;line-height: 107%;&quot;&gt;&lt;span style=&quot;mso-list:Ignore&quot;&gt;6.&lt;span style=&quot;font-style: normal; font-variant: normal; font-kerning: auto; font-optical-sizing: auto; font-feature-settings: normal; font-variation-settings: normal; font-weight: normal; font-stretch: normal; line-height: normal; font-family: &amp;quot;Times New Roman&amp;quot;;&quot;&gt;&amp;nbsp;&amp;nbsp; &lt;/span&gt;&lt;/span&gt;&lt;/span&gt;&lt;/b&gt;&lt;b&gt;&lt;span style=&quot;line-height: 107%;&quot;&gt;assegnamentoPersonale(&lt;u&gt;Turno&lt;/u&gt;:turno, &lt;u&gt;Servizio&lt;/u&gt;: servizio, &lt;u&gt;Personale&lt;/u&gt;: personale, &lt;u&gt;ruolo&lt;/u&gt;?:ruolo)&lt;/span&gt;&lt;/b&gt;&lt;/p&gt;" style="text;whiteSpace=wrap;html=1;rounded=1;" parent="1" vertex="1">
          <mxGeometry x="490" y="140" width="540" height="50" as="geometry" />
        </mxCell>
        <mxCell id="hn4v2kwjK6PcISgxzkxJ-2" style="edgeStyle=orthogonalEdgeStyle;rounded=1;orthogonalLoop=1;jettySize=auto;html=1;exitX=0.5;exitY=1;exitDx=0;exitDy=0;endArrow=none;endFill=0;dashed=1;entryX=0.02;entryY=1.003;entryDx=0;entryDy=0;entryPerimeter=0;exitPerimeter=0;" parent="1" source="hn4v2kwjK6PcISgxzkxJ-3" edge="1">
          <mxGeometry relative="1" as="geometry">
            <mxPoint x="-65" y="1744" as="targetPoint" />
            <mxPoint x="-65" y="480" as="sourcePoint" />
          </mxGeometry>
        </mxCell>
        <mxCell id="hn4v2kwjK6PcISgxzkxJ-3" value="UI" style="shape=folder;fontStyle=1;spacingTop=10;tabWidth=40;tabHeight=14;tabPosition=left;html=1;whiteSpace=wrap;fillColor=#fff2cc;strokeColor=#d6b656;rounded=1;" parent="1" vertex="1">
          <mxGeometry x="-100" y="340" width="70" height="50" as="geometry" />
        </mxCell>
        <mxCell id="hn4v2kwjK6PcISgxzkxJ-4" style="edgeStyle=orthogonalEdgeStyle;rounded=1;orthogonalLoop=1;jettySize=auto;html=1;exitX=0.5;exitY=1;exitDx=0;exitDy=0;endArrow=none;endFill=0;dashed=1;entryX=0.15;entryY=1.001;entryDx=0;entryDy=0;entryPerimeter=0;" parent="1" edge="1">
          <mxGeometry relative="1" as="geometry">
            <mxPoint x="280" y="1751" as="targetPoint" />
            <mxPoint x="280" y="390" as="sourcePoint" />
          </mxGeometry>
        </mxCell>
        <mxCell id="hn4v2kwjK6PcISgxzkxJ-5" value="eventManager: EventManager" style="html=1;whiteSpace=wrap;fillColor=#fff2cc;strokeColor=#d6b656;rounded=1;" parent="1" vertex="1">
          <mxGeometry x="180" y="360" width="200" height="30" as="geometry" />
        </mxCell>
        <mxCell id="hn4v2kwjK6PcISgxzkxJ-6" value="eevListener: EventEventReceiver" style="html=1;whiteSpace=wrap;fillColor=#fff2cc;strokeColor=#d6b656;rounded=1;" parent="1" vertex="1">
          <mxGeometry x="690" y="280" width="160" height="30" as="geometry" />
        </mxCell>
        <mxCell id="hn4v2kwjK6PcISgxzkxJ-7" style="edgeStyle=orthogonalEdgeStyle;rounded=1;orthogonalLoop=1;jettySize=auto;html=1;exitX=0.5;exitY=1;exitDx=0;exitDy=0;endArrow=none;endFill=0;dashed=1;entryX=0.15;entryY=1.001;entryDx=0;entryDy=0;entryPerimeter=0;" parent="1" edge="1">
          <mxGeometry relative="1" as="geometry">
            <mxPoint x="769.41" y="1671" as="targetPoint" />
            <mxPoint x="769.41" y="310" as="sourcePoint" />
          </mxGeometry>
        </mxCell>
        <mxCell id="hn4v2kwjK6PcISgxzkxJ-8" value="service: Service" style="html=1;whiteSpace=wrap;fillColor=#fff2cc;strokeColor=#d6b656;rounded=1;" parent="1" vertex="1">
          <mxGeometry x="900" y="360" width="140" height="30" as="geometry" />
        </mxCell>
        <mxCell id="hn4v2kwjK6PcISgxzkxJ-9" style="edgeStyle=orthogonalEdgeStyle;rounded=1;orthogonalLoop=1;jettySize=auto;html=1;exitX=0.5;exitY=1;exitDx=0;exitDy=0;endArrow=none;endFill=0;dashed=1;" parent="1" edge="1">
          <mxGeometry relative="1" as="geometry">
            <mxPoint x="969" y="1490" as="targetPoint" />
            <mxPoint x="969.4399999999999" y="390" as="sourcePoint" />
          </mxGeometry>
        </mxCell>
        <mxCell id="hn4v2kwjK6PcISgxzkxJ-14" value="eventManager.currentEvent: Event" style="html=1;whiteSpace=wrap;fillColor=#fff2cc;strokeColor=#d6b656;rounded=1;" parent="1" vertex="1">
          <mxGeometry x="510" y="360" width="200" height="30" as="geometry" />
        </mxCell>
        <mxCell id="hn4v2kwjK6PcISgxzkxJ-15" style="edgeStyle=orthogonalEdgeStyle;rounded=1;orthogonalLoop=1;jettySize=auto;html=1;exitX=0.5;exitY=1;exitDx=0;exitDy=0;endArrow=none;endFill=0;dashed=1;entryX=0.15;entryY=1.001;entryDx=0;entryDy=0;entryPerimeter=0;" parent="1" edge="1">
          <mxGeometry relative="1" as="geometry">
            <mxPoint x="609.41" y="1751" as="targetPoint" />
            <mxPoint x="609.41" y="390" as="sourcePoint" />
          </mxGeometry>
        </mxCell>
        <mxCell id="hn4v2kwjK6PcISgxzkxJ-39" value="ALT !turn.isExhausted() || service.state == 3 || service. state == 2&amp;nbsp;" style="shape=umlFrame;whiteSpace=wrap;html=1;pointerEvents=0;width=390;height=30;fillColor=#f8cecc;strokeColor=#b85450;rounded=1;" parent="1" vertex="1">
          <mxGeometry x="-90" y="480" width="1610" height="890" as="geometry" />
        </mxCell>
        <mxCell id="hn4v2kwjK6PcISgxzkxJ-41" value="throwServiceException" style="html=1;verticalAlign=bottom;endArrow=open;dashed=1;endSize=8;edgeStyle=elbowEdgeStyle;elbow=vertical;curved=0;rounded=1;" parent="1" edge="1">
          <mxGeometry relative="1" as="geometry">
            <mxPoint x="275" y="540" as="sourcePoint" />
            <mxPoint x="-65" y="540" as="targetPoint" />
          </mxGeometry>
        </mxCell>
        <mxCell id="hn4v2kwjK6PcISgxzkxJ-42" value="" style="html=1;verticalAlign=bottom;endArrow=none;dashed=1;endSize=8;edgeStyle=elbowEdgeStyle;elbow=vertical;curved=0;rounded=1;exitX=1.001;exitY=0.104;exitDx=0;exitDy=0;exitPerimeter=0;fillColor=#f8cecc;strokeColor=#b85450;endFill=0;" parent="1" source="hn4v2kwjK6PcISgxzkxJ-39" edge="1">
          <mxGeometry relative="1" as="geometry">
            <mxPoint x="250" y="570" as="sourcePoint" />
            <mxPoint x="-90" y="570" as="targetPoint" />
          </mxGeometry>
        </mxCell>
        <mxCell id="hn4v2kwjK6PcISgxzkxJ-43" value="assignStaff(turn,service,staff,role)" style="html=1;verticalAlign=bottom;endArrow=block;edgeStyle=elbowEdgeStyle;elbow=vertical;curved=0;rounded=1;" parent="1" edge="1">
          <mxGeometry x="-0.4698" width="80" relative="1" as="geometry">
            <mxPoint x="-60" y="440" as="sourcePoint" />
            <mxPoint x="280" y="440" as="targetPoint" />
            <mxPoint as="offset" />
          </mxGeometry>
        </mxCell>
        <mxCell id="hn4v2kwjK6PcISgxzkxJ-44" value="ALT !staff.avaiblesTurn().contains(turn)&amp;nbsp;" style="shape=umlFrame;whiteSpace=wrap;html=1;pointerEvents=0;width=390;height=30;fillColor=#f8cecc;strokeColor=#b85450;rounded=1;" parent="1" vertex="1">
          <mxGeometry x="-90" y="610" width="1610" height="760" as="geometry" />
        </mxCell>
        <mxCell id="hn4v2kwjK6PcISgxzkxJ-45" value="throwTurnException" style="html=1;verticalAlign=bottom;endArrow=open;dashed=1;endSize=8;edgeStyle=elbowEdgeStyle;elbow=vertical;curved=0;rounded=1;" parent="1" edge="1">
          <mxGeometry relative="1" as="geometry">
            <mxPoint x="280" y="660.29" as="sourcePoint" />
            <mxPoint x="-60" y="660.29" as="targetPoint" />
          </mxGeometry>
        </mxCell>
        <mxCell id="hn4v2kwjK6PcISgxzkxJ-46" value="" style="html=1;verticalAlign=bottom;endArrow=none;dashed=1;endSize=8;edgeStyle=elbowEdgeStyle;elbow=vertical;curved=0;rounded=1;exitX=1.001;exitY=0.094;exitDx=0;exitDy=0;exitPerimeter=0;fillColor=#f8cecc;strokeColor=#b85450;endFill=0;" parent="1" edge="1">
          <mxGeometry relative="1" as="geometry">
            <mxPoint x="1521.6099999999997" y="741.44" as="sourcePoint" />
            <mxPoint x="-90" y="610" as="targetPoint" />
          </mxGeometry>
        </mxCell>
        <mxCell id="hn4v2kwjK6PcISgxzkxJ-47" value="assignStaff(turn,service,staff,role)" style="html=1;verticalAlign=bottom;endArrow=block;edgeStyle=elbowEdgeStyle;elbow=vertical;curved=0;rounded=1;" parent="1" edge="1">
          <mxGeometry x="-0.4698" width="80" relative="1" as="geometry">
            <mxPoint x="280" y="700.29" as="sourcePoint" />
            <mxPoint x="610" y="700" as="targetPoint" />
            <mxPoint as="offset" />
          </mxGeometry>
        </mxCell>
        <mxCell id="hn4v2kwjK6PcISgxzkxJ-50" value="assignStaff(turn,staff,role)" style="html=1;verticalAlign=bottom;endArrow=block;edgeStyle=elbowEdgeStyle;elbow=vertical;curved=0;rounded=1;" parent="1" edge="1">
          <mxGeometry x="-0.4984" width="80" relative="1" as="geometry">
            <mxPoint x="610" y="790.3499999999999" as="sourcePoint" />
            <mxPoint x="970" y="790" as="targetPoint" />
            <mxPoint as="offset" />
          </mxGeometry>
        </mxCell>
        <mxCell id="hn4v2kwjK6PcISgxzkxJ-51" value="create(turn,staff,role)" style="html=1;verticalAlign=bottom;endArrow=block;edgeStyle=elbowEdgeStyle;elbow=vertical;curved=0;rounded=1;" parent="1" edge="1">
          <mxGeometry width="80" relative="1" as="geometry">
            <mxPoint x="970" y="820.06" as="sourcePoint" />
            <mxPoint x="1210" y="820" as="targetPoint" />
          </mxGeometry>
        </mxCell>
        <mxCell id="hn4v2kwjK6PcISgxzkxJ-52" value="sd: ServiceDuty" style="html=1;whiteSpace=wrap;fillColor=#fff2cc;strokeColor=#d6b656;rounded=1;" parent="1" vertex="1">
          <mxGeometry x="1220" y="800" width="140" height="30" as="geometry" />
        </mxCell>
        <mxCell id="hn4v2kwjK6PcISgxzkxJ-53" style="edgeStyle=orthogonalEdgeStyle;rounded=1;orthogonalLoop=1;jettySize=auto;html=1;exitX=0.5;exitY=1;exitDx=0;exitDy=0;endArrow=none;endFill=0;dashed=1;" parent="1" edge="1">
          <mxGeometry relative="1" as="geometry">
            <mxPoint x="1289" y="1810" as="targetPoint" />
            <mxPoint x="1289.4099999999999" y="830" as="sourcePoint" />
          </mxGeometry>
        </mxCell>
        <mxCell id="hn4v2kwjK6PcISgxzkxJ-55" value="this.turn = turn" style="html=1;align=left;spacingLeft=2;endArrow=block;rounded=1;edgeStyle=orthogonalEdgeStyle;curved=0;rounded=0;" parent="1" edge="1">
          <mxGeometry relative="1" as="geometry">
            <mxPoint x="1290" y="840" as="sourcePoint" />
            <Array as="points">
              <mxPoint x="1320" y="870" />
            </Array>
            <mxPoint x="1295" y="870.0588235294117" as="targetPoint" />
          </mxGeometry>
        </mxCell>
        <mxCell id="hn4v2kwjK6PcISgxzkxJ-56" value="this.staff = staff" style="html=1;align=left;spacingLeft=2;endArrow=block;rounded=1;edgeStyle=orthogonalEdgeStyle;curved=0;rounded=0;" parent="1" edge="1">
          <mxGeometry relative="1" as="geometry">
            <mxPoint x="1290" y="880" as="sourcePoint" />
            <Array as="points">
              <mxPoint x="1320" y="910" />
            </Array>
            <mxPoint x="1295" y="910.0588235294117" as="targetPoint" />
          </mxGeometry>
        </mxCell>
        <mxCell id="hn4v2kwjK6PcISgxzkxJ-57" value="this.role = role" style="html=1;align=left;spacingLeft=2;endArrow=block;rounded=1;edgeStyle=orthogonalEdgeStyle;curved=0;rounded=0;" parent="1" edge="1">
          <mxGeometry relative="1" as="geometry">
            <mxPoint x="1290" y="920" as="sourcePoint" />
            <Array as="points">
              <mxPoint x="1320" y="950" />
            </Array>
            <mxPoint x="1295" y="950.0588235294117" as="targetPoint" />
          </mxGeometry>
        </mxCell>
        <mxCell id="hn4v2kwjK6PcISgxzkxJ-58" value="sd" style="html=1;verticalAlign=bottom;endArrow=open;dashed=1;endSize=8;edgeStyle=elbowEdgeStyle;elbow=vertical;curved=0;rounded=1;" parent="1" edge="1">
          <mxGeometry x="0.875" relative="1" as="geometry">
            <mxPoint x="1290" y="990" as="sourcePoint" />
            <mxPoint x="970" y="990" as="targetPoint" />
            <mxPoint as="offset" />
          </mxGeometry>
        </mxCell>
        <mxCell id="hn4v2kwjK6PcISgxzkxJ-60" value="serviceDuties: ArrayList&amp;lt;ServiceDuty&amp;gt;" style="html=1;whiteSpace=wrap;fillColor=#fff2cc;strokeColor=#d6b656;rounded=1;" parent="1" vertex="1">
          <mxGeometry x="1360" y="990" width="140" height="30" as="geometry" />
        </mxCell>
        <mxCell id="hn4v2kwjK6PcISgxzkxJ-61" style="edgeStyle=orthogonalEdgeStyle;rounded=1;orthogonalLoop=1;jettySize=auto;html=1;exitX=0.5;exitY=1;exitDx=0;exitDy=0;endArrow=none;endFill=0;dashed=1;" parent="1" edge="1">
          <mxGeometry relative="1" as="geometry">
            <mxPoint x="1429" y="1750" as="targetPoint" />
            <mxPoint x="1429.29" y="1020" as="sourcePoint" />
          </mxGeometry>
        </mxCell>
        <mxCell id="hn4v2kwjK6PcISgxzkxJ-62" value="add(sd)" style="html=1;verticalAlign=bottom;endArrow=block;edgeStyle=elbowEdgeStyle;elbow=vertical;curved=0;rounded=1;" parent="1" edge="1">
          <mxGeometry x="-0.8696" width="80" relative="1" as="geometry">
            <mxPoint x="970" y="1040" as="sourcePoint" />
            <mxPoint x="1430" y="1040" as="targetPoint" />
            <mxPoint as="offset" />
          </mxGeometry>
        </mxCell>
        <mxCell id="hn4v2kwjK6PcISgxzkxJ-64" value="sd" style="html=1;verticalAlign=bottom;endArrow=open;dashed=1;endSize=8;edgeStyle=elbowEdgeStyle;elbow=vertical;curved=0;rounded=1;" parent="1" edge="1">
          <mxGeometry x="0.875" relative="1" as="geometry">
            <mxPoint x="970" y="1060.29" as="sourcePoint" />
            <mxPoint x="620" y="1060" as="targetPoint" />
            <mxPoint as="offset" />
          </mxGeometry>
        </mxCell>
        <mxCell id="hn4v2kwjK6PcISgxzkxJ-65" value="sd" style="html=1;verticalAlign=bottom;endArrow=open;dashed=1;endSize=8;edgeStyle=elbowEdgeStyle;elbow=vertical;curved=0;rounded=1;" parent="1" edge="1">
          <mxGeometry x="0.875" relative="1" as="geometry">
            <mxPoint x="610" y="1090" as="sourcePoint" />
            <mxPoint x="290" y="1090.29" as="targetPoint" />
            <mxPoint as="offset" />
          </mxGeometry>
        </mxCell>
        <mxCell id="hn4v2kwjK6PcISgxzkxJ-66" value="&lt;font style=&quot;font-size: 10px;&quot;&gt;LOOP:for all receivers in&amp;nbsp;&lt;/font&gt;&lt;font style=&quot;font-size: 9px;&quot;&gt;eevListener&lt;/font&gt;" style="shape=umlFrame;whiteSpace=wrap;html=1;pointerEvents=0;width=200;height=20;rounded=1;" parent="1" vertex="1">
          <mxGeometry x="260" y="1160" width="570" height="100" as="geometry" />
        </mxCell>
        <mxCell id="hn4v2kwjK6PcISgxzkxJ-68" value="notifyAddedServiceDuty(sd)" style="html=1;align=left;spacingLeft=2;endArrow=block;rounded=1;edgeStyle=orthogonalEdgeStyle;curved=0;rounded=0;" parent="1" edge="1">
          <mxGeometry relative="1" as="geometry">
            <mxPoint x="280" y="1110" as="sourcePoint" />
            <Array as="points">
              <mxPoint x="310" y="1140" />
            </Array>
            <mxPoint x="285" y="1140.0588235294117" as="targetPoint" />
          </mxGeometry>
        </mxCell>
        <mxCell id="hn4v2kwjK6PcISgxzkxJ-69" value="updatedAddedServiceDuty(sd)" style="html=1;verticalAlign=bottom;endArrow=block;edgeStyle=elbowEdgeStyle;elbow=vertical;curved=0;rounded=1;" parent="1" edge="1">
          <mxGeometry width="80" relative="1" as="geometry">
            <mxPoint x="280" y="1200" as="sourcePoint" />
            <mxPoint x="610" y="1200" as="targetPoint" />
          </mxGeometry>
        </mxCell>
        <mxCell id="hn4v2kwjK6PcISgxzkxJ-70" value="sd" style="html=1;verticalAlign=bottom;endArrow=open;dashed=1;endSize=8;edgeStyle=elbowEdgeStyle;elbow=vertical;curved=0;rounded=1;" parent="1" edge="1">
          <mxGeometry x="0.875" relative="1" as="geometry">
            <mxPoint x="280" y="1280" as="sourcePoint" />
            <mxPoint x="-60" y="1280" as="targetPoint" />
            <mxPoint as="offset" />
          </mxGeometry>
        </mxCell>
        <mxCell id="Oz5jRyYz6aPx2flc6_-P-1" value="" style="html=1;points=[];perimeter=orthogonalPerimeter;outlineConnect=0;targetShapes=umlLifeline;portConstraint=eastwest;newEdgeStyle={&quot;edgeStyle&quot;:&quot;elbowEdgeStyle&quot;,&quot;elbow&quot;:&quot;vertical&quot;,&quot;curved&quot;:0,&quot;rounded&quot;:0};fillOpacity=50;strokeOpacity=50;rounded=1;" parent="1" vertex="1">
          <mxGeometry x="605" y="700" width="10" height="390" as="geometry" />
        </mxCell>
        <mxCell id="Oz5jRyYz6aPx2flc6_-P-2" value="" style="html=1;points=[];perimeter=orthogonalPerimeter;outlineConnect=0;targetShapes=umlLifeline;portConstraint=eastwest;newEdgeStyle={&quot;edgeStyle&quot;:&quot;elbowEdgeStyle&quot;,&quot;elbow&quot;:&quot;vertical&quot;,&quot;curved&quot;:0,&quot;rounded&quot;:0};fillOpacity=50;strokeOpacity=50;rounded=1;" parent="1" vertex="1">
          <mxGeometry x="1285" y="830" width="10" height="160" as="geometry" />
        </mxCell>
        <mxCell id="Oz5jRyYz6aPx2flc6_-P-3" value="" style="html=1;points=[];perimeter=orthogonalPerimeter;outlineConnect=0;targetShapes=umlLifeline;portConstraint=eastwest;newEdgeStyle={&quot;edgeStyle&quot;:&quot;elbowEdgeStyle&quot;,&quot;elbow&quot;:&quot;vertical&quot;,&quot;curved&quot;:0,&quot;rounded&quot;:0};fillOpacity=50;strokeOpacity=50;rounded=1;" parent="1" vertex="1">
          <mxGeometry x="1425" y="1040" width="10" height="10" as="geometry" />
        </mxCell>
        <mxCell id="Oz5jRyYz6aPx2flc6_-P-4" value="" style="html=1;points=[];perimeter=orthogonalPerimeter;outlineConnect=0;targetShapes=umlLifeline;portConstraint=eastwest;newEdgeStyle={&quot;edgeStyle&quot;:&quot;elbowEdgeStyle&quot;,&quot;elbow&quot;:&quot;vertical&quot;,&quot;curved&quot;:0,&quot;rounded&quot;:0};fillOpacity=50;strokeOpacity=50;rounded=1;" parent="1" vertex="1">
          <mxGeometry x="965" y="790" width="10" height="270" as="geometry" />
        </mxCell>
        <mxCell id="Oz5jRyYz6aPx2flc6_-P-6" value="" style="html=1;points=[];perimeter=orthogonalPerimeter;outlineConnect=0;targetShapes=umlLifeline;portConstraint=eastwest;newEdgeStyle={&quot;edgeStyle&quot;:&quot;elbowEdgeStyle&quot;,&quot;elbow&quot;:&quot;vertical&quot;,&quot;curved&quot;:0,&quot;rounded&quot;:0};fillOpacity=50;strokeOpacity=50;rounded=1;" parent="1" vertex="1">
          <mxGeometry x="275" y="440" width="10" height="840" as="geometry" />
        </mxCell>
        <mxCell id="Oz5jRyYz6aPx2flc6_-P-7" value="" style="html=1;points=[];perimeter=orthogonalPerimeter;outlineConnect=0;targetShapes=umlLifeline;portConstraint=eastwest;newEdgeStyle={&quot;edgeStyle&quot;:&quot;elbowEdgeStyle&quot;,&quot;elbow&quot;:&quot;vertical&quot;,&quot;curved&quot;:0,&quot;rounded&quot;:0};fillOpacity=50;strokeOpacity=50;rounded=1;" parent="1" vertex="1">
          <mxGeometry x="605" y="1200" width="10" height="30" as="geometry" />
        </mxCell>
      </root>
    </mxGraphModel>
  </diagram>
</mxfile>
